# Rhino

mtllib part 4.mtl
usemtl diffuse_0
v -4.4000000953674316 -1.2799898087978367 2.9600101113319397
v -4.1599998474121094 -1.2799898087978367 2.9600101113319397
v -4.1782641410827637 -1.2799898087978367 2.868162214756012
v -4.2302961349487305 -1.2799898087978367 2.7903061509132385
v -4.3081521987915039 -1.2799898087978367 2.7382741570472717
v -4.4000000953674316 -1.2799898087978367 2.7200101017951965
v -4.4918479919433594 -1.2799898087978367 2.7382741570472717
v -4.5697040557861328 -1.2799898087978367 2.7903061509132385
v -4.6217360496520996 -1.2799898087978367 2.868162214756012
v -4.6399998664855957 -1.2799898087978367 2.9600101113319397
v -4.6217360496520996 -1.279989808797837 3.0518582463264465
v -4.5697040557861328 -1.279989808797837 3.12971431016922
v -4.4918479919433594 -1.279989808797837 3.1817463040351868
v -4.4000000953674316 -1.279989808797837 3.2000101208686829
v -4.3081521987915039 -1.279989808797837 3.1817463040351868
v -4.2302961349487305 -1.279989808797837 3.12971431016922
v -4.1782641410827637 -1.279989808797837 3.0518582463264465
v -4.1782641410827637 -1.4399898052215583 3.0518582463264465
v -4.1599998474121094 -1.4399898052215581 2.9600101113319397
v -4.1599998474121094 -1.2799898087978367 2.9600101113319397
v -4.1782641410827637 -1.279989808797837 3.0518582463264465
v -4.2302961349487305 -1.4399898052215583 3.12971431016922
v -4.1782641410827637 -1.4399898052215583 3.0518582463264465
v -4.1782641410827637 -1.279989808797837 3.0518582463264465
v -4.2302961349487305 -1.279989808797837 3.12971431016922
v -4.3081521987915039 -1.4399898052215583 3.1817463040351868
v -4.3081521987915039 -1.279989808797837 3.1817463040351868
v -4.4000000953674316 -1.4399898052215583 3.2000101208686829
v -4.3081521987915039 -1.4399898052215583 3.1817463040351868
v -4.3081521987915039 -1.279989808797837 3.1817463040351868
v -4.4000000953674316 -1.279989808797837 3.2000101208686829
v -4.4918479919433594 -1.4399898052215583 3.1817463040351868
v -4.4918479919433594 -1.279989808797837 3.1817463040351868
v -4.5697040557861328 -1.4399898052215583 3.12971431016922
v -4.4918479919433594 -1.4399898052215583 3.1817463040351868
v -4.4918479919433594 -1.279989808797837 3.1817463040351868
v -4.5697040557861328 -1.279989808797837 3.12971431016922
v -4.6217360496520996 -1.4399898052215583 3.0518582463264465
v -4.6217360496520996 -1.279989808797837 3.0518582463264465
v -4.6399998664855957 -1.4399898052215581 2.9600101113319397
v -4.6217360496520996 -1.4399898052215583 3.0518582463264465
v -4.6217360496520996 -1.279989808797837 3.0518582463264465
v -4.6399998664855957 -1.2799898087978367 2.9600101113319397
v -4.6217360496520996 -1.4399898052215581 2.868162214756012
v -4.6217360496520996 -1.2799898087978367 2.868162214756012
v -4.5697040557861328 -1.4399898052215581 2.7903061509132385
v -4.6217360496520996 -1.4399898052215581 2.868162214756012
v -4.6217360496520996 -1.2799898087978367 2.868162214756012
v -4.5697040557861328 -1.2799898087978367 2.7903061509132385
v -4.4918479919433594 -1.4399898052215581 2.7382741570472717
v -4.4918479919433594 -1.2799898087978367 2.7382741570472717
v -4.4000000953674316 -1.4399898052215581 2.7200101017951965
v -4.4918479919433594 -1.4399898052215581 2.7382741570472717
v -4.4918479919433594 -1.2799898087978367 2.7382741570472717
v -4.4000000953674316 -1.2799898087978367 2.7200101017951965
v -4.3081521987915039 -1.4399898052215581 2.7382741570472717
v -4.3081521987915039 -1.2799898087978367 2.7382741570472717
v -4.2302961349487305 -1.4399898052215581 2.7903061509132385
v -4.3081521987915039 -1.4399898052215581 2.7382741570472717
v -4.3081521987915039 -1.2799898087978367 2.7382741570472717
v -4.2302961349487305 -1.2799898087978367 2.7903061509132385
v -4.1782641410827637 -1.4399898052215581 2.868162214756012
v -4.1782641410827637 -1.2799898087978367 2.868162214756012
v -4.1782641410827637 -1.4399898052215581 2.868162214756012
v -4.1782641410827637 -1.2799898087978367 2.868162214756012
vn 0 1 0
vn 0 1 0
vn 0 1 0
vn 0 1 0
vn 0 1 0
vn 0 1 0
vn 0 1 0
vn 0 1 0
vn 0 1 0
vn 0 1 0
vn 0 1 0
vn 0 1 0
vn 0 1 0
vn 0 1 0
vn 0 1 0
vn 0 1 0
vn 0 1 0
vn 0.98079639673233032 0 0.19503447413444519
vn 0.99781036376953125 0 -0.066139593720436096
vn 0.99781042337417603 0 0.066139094531536102
vn 0.98079639673233032 0 0.19503447413444519
vn 0.75231826305389404 0 0.65879982709884644
vn 0.83141911029815674 0 0.55564582347869873
vn 0.83141911029815674 0 0.55564582347869873
vn 0.65879982709884644 0 0.75231826305389404
vn 0.55564582347869873 0 0.83141911029815674
vn 0.55564582347869873 0 0.83141911029815674
vn 0.066137708723545074 0 0.9978104829788208
vn 0.19503006339073181 0 0.98079729080200195
vn 0.19503006339073181 0 0.98079729080200195
vn -0.066137708723545074 0 0.9978104829788208
vn -0.19503006339073181 0 0.98079729080200195
vn -0.19503006339073181 0 0.98079729080200195
vn -0.65879982709884644 0 0.75231826305389404
vn -0.55564582347869873 0 0.83141911029815674
vn -0.55564582347869873 0 0.83141911029815674
vn -0.75231826305389404 0 0.65879982709884644
vn -0.83141911029815674 0 0.55564582347869873
vn -0.83141911029815674 0 0.55564582347869873
vn -0.99781054258346558 0 0.06613738089799881
vn -0.98079735040664673 0 0.19502958655357361
vn -0.98079735040664673 0 0.19502958655357361
vn -0.9978104829788208 0 -0.06613786518573761
vn -0.98079729080200195 0 -0.19503006339073181
vn -0.98079729080200195 0 -0.19503006339073181
vn -0.75231826305389404 0 -0.65879982709884644
vn -0.83141911029815674 0 -0.55564582347869873
vn -0.83141911029815674 0 -0.55564582347869873
vn -0.65879982709884644 0 -0.75231826305389404
vn -0.55564582347869873 0 -0.83141911029815674
vn -0.55564582347869873 0 -0.83141911029815674
vn -0.066138572990894318 0 -0.99781042337417603
vn -0.1950325220823288 0 -0.98079675436019897
vn -0.1950325220823288 0 -0.98079675436019897
vn 0.066138572990894318 0 -0.99781042337417603
vn 0.1950325220823288 0 -0.98079675436019897
vn 0.1950325220823288 0 -0.98079675436019897
vn 0.65879982709884644 0 -0.75231826305389404
vn 0.55564582347869873 0 -0.83141911029815674
vn 0.55564582347869873 0 -0.83141911029815674
vn 0.75231826305389404 0 -0.65879982709884644
vn 0.83141911029815674 0 -0.55564582347869873
vn 0.83141911029815674 0 -0.55564582347869873
vn 0.98079627752304077 0 -0.19503496587276459
vn 0.98079627752304077 0 -0.19503496587276459
f 1//1 2//2 3//3
f 1//1 3//3 4//4
f 1//1 4//4 5//5
f 1//1 5//5 6//6
f 1//1 6//6 7//7
f 1//1 7//7 8//8
f 1//1 8//8 9//9
f 1//1 9//9 10//10
f 1//1 10//10 11//11
f 1//1 11//11 12//12
f 1//1 12//12 13//13
f 1//1 13//13 14//14
f 1//1 14//14 15//15
f 1//1 15//15 16//16
f 1//1 16//16 17//17
f 1//1 17//17 2//2
f 18//18 19//19 20//20
f 18//18 20//20 21//21
f 22//22 23//23 24//24
f 22//22 24//24 25//25
f 26//26 22//22 25//25
f 26//26 25//25 27//27
f 28//28 29//29 30//30
f 28//28 30//30 31//31
f 32//32 28//28 31//31
f 32//32 31//31 33//33
f 34//34 35//35 36//36
f 34//34 36//36 37//37
f 38//38 34//34 37//37
f 38//38 37//37 39//39
f 40//40 41//41 42//42
f 40//40 42//42 43//43
f 44//44 40//40 43//43
f 44//44 43//43 45//45
f 46//46 47//47 48//48
f 46//46 48//48 49//49
f 50//50 46//46 49//49
f 50//50 49//49 51//51
f 52//52 53//53 54//54
f 52//52 54//54 55//55
f 56//56 52//52 55//55
f 56//56 55//55 57//57
f 58//58 59//59 60//60
f 58//58 60//60 61//61
f 62//62 58//58 61//61
f 62//62 61//61 63//63
f 19//19 64//64 65//65
f 19//19 65//65 20//20
usemtl diffuse_0
v -3.5999999046325684 -1.2799898087978367 2.9600101113319397
v -3.3599998950958252 -1.2799898087978367 2.9600101113319397
v -3.3782639503479004 -1.2799898087978367 2.868162214756012
v -3.4302959442138672 -1.2799898087978367 2.7903061509132385
v -3.5081520080566406 -1.2799898087978367 2.7382741570472717
v -3.5999999046325684 -1.2799898087978367 2.7200101017951965
v -3.6918480396270752 -1.2799898087978367 2.7382741570472717
v -3.7697041034698486 -1.2799898087978367 2.7903061509132385
v -3.8217360973358154 -1.2799898087978367 2.868162214756012
v -3.8399999141693115 -1.2799898087978367 2.9600101113319397
v -3.8217360973358154 -1.279989808797837 3.0518582463264465
v -3.7697041034698486 -1.279989808797837 3.12971431016922
v -3.6918480396270752 -1.279989808797837 3.1817463040351868
v -3.5999999046325684 -1.279989808797837 3.2000101208686829
v -3.5081520080566406 -1.279989808797837 3.1817463040351868
v -3.4302959442138672 -1.279989808797837 3.12971431016922
v -3.3782639503479004 -1.279989808797837 3.0518582463264465
v -3.3782639503479004 -1.4399898052215583 3.0518582463264465
v -3.3599998950958252 -1.4399898052215581 2.9600101113319397
v -3.3599998950958252 -1.2799898087978367 2.9600101113319397
v -3.3782639503479004 -1.279989808797837 3.0518582463264465
v -3.4302959442138672 -1.4399898052215583 3.12971431016922
v -3.3782639503479004 -1.4399898052215583 3.0518582463264465
v -3.3782639503479004 -1.279989808797837 3.0518582463264465
v -3.4302959442138672 -1.279989808797837 3.12971431016922
v -3.5081520080566406 -1.4399898052215583 3.1817463040351868
v -3.5081520080566406 -1.279989808797837 3.1817463040351868
v -3.5999999046325684 -1.4399898052215583 3.2000101208686829
v -3.5081520080566406 -1.4399898052215583 3.1817463040351868
v -3.5081520080566406 -1.279989808797837 3.1817463040351868
v -3.5999999046325684 -1.279989808797837 3.2000101208686829
v -3.6918480396270752 -1.4399898052215583 3.1817463040351868
v -3.6918480396270752 -1.279989808797837 3.1817463040351868
v -3.7697041034698486 -1.4399898052215583 3.12971431016922
v -3.6918480396270752 -1.4399898052215583 3.1817463040351868
v -3.6918480396270752 -1.279989808797837 3.1817463040351868
v -3.7697041034698486 -1.279989808797837 3.12971431016922
v -3.8217360973358154 -1.4399898052215583 3.0518582463264465
v -3.8217360973358154 -1.279989808797837 3.0518582463264465
v -3.8399999141693115 -1.4399898052215581 2.9600101113319397
v -3.8217360973358154 -1.4399898052215583 3.0518582463264465
v -3.8217360973358154 -1.279989808797837 3.0518582463264465
v -3.8399999141693115 -1.2799898087978367 2.9600101113319397
v -3.8217360973358154 -1.4399898052215581 2.868162214756012
v -3.8217360973358154 -1.2799898087978367 2.868162214756012
v -3.7697041034698486 -1.4399898052215581 2.7903061509132385
v -3.8217360973358154 -1.4399898052215581 2.868162214756012
v -3.8217360973358154 -1.2799898087978367 2.868162214756012
v -3.7697041034698486 -1.2799898087978367 2.7903061509132385
v -3.6918480396270752 -1.4399898052215581 2.7382741570472717
v -3.6918480396270752 -1.2799898087978367 2.7382741570472717
v -3.5999999046325684 -1.4399898052215581 2.7200101017951965
v -3.6918480396270752 -1.4399898052215581 2.7382741570472717
v -3.6918480396270752 -1.2799898087978367 2.7382741570472717
v -3.5999999046325684 -1.2799898087978367 2.7200101017951965
v -3.5081520080566406 -1.4399898052215581 2.7382741570472717
v -3.5081520080566406 -1.2799898087978367 2.7382741570472717
v -3.4302959442138672 -1.4399898052215581 2.7903061509132385
v -3.5081520080566406 -1.4399898052215581 2.7382741570472717
v -3.5081520080566406 -1.2799898087978367 2.7382741570472717
v -3.4302959442138672 -1.2799898087978367 2.7903061509132385
v -3.3782639503479004 -1.4399898052215581 2.868162214756012
v -3.3782639503479004 -1.2799898087978367 2.868162214756012
v -3.3782639503479004 -1.4399898052215581 2.868162214756012
v -3.3782639503479004 -1.2799898087978367 2.868162214756012
vn 0 1 0
vn 0 1 0
vn 0 1 0
vn 0 1 0
vn 0 1 0
vn 0 1 0
vn 0 1 0
vn 0 1 0
vn 0 1 0
vn 0 1 0
vn 0 1 0
vn 0 1 0
vn 0 1 0
vn 0 1 0
vn 0 1 0
vn 0 1 0
vn 0 1 0
vn 0.98079687356948853 0 0.1950320303440094
vn 0.99781042337417603 0 -0.06613873690366745
vn 0.9978104829788208 0 0.066138237714767456
vn 0.98079687356948853 0 0.1950320303440094
vn 0.75231826305389404 0 0.65879982709884644
vn 0.83141911029815674 0 0.55564582347869873
vn 0.83141911029815674 0 0.55564582347869873
vn 0.65879982709884644 0 0.75231826305389404
vn 0.55564582347869873 0 0.83141911029815674
vn 0.55564582347869873 0 0.83141911029815674
vn 0.06613786518573761 0 0.9978104829788208
vn 0.19503006339073181 0 0.98079729080200195
vn 0.19503006339073181 0 0.98079729080200195
vn -0.06613738089799881 0 0.99781054258346558
vn -0.19502958655357361 0 0.98079735040664673
vn -0.19502958655357361 0 0.98079735040664673
vn -0.65879982709884644 0 0.75231826305389404
vn -0.55564582347869873 0 0.83141911029815674
vn -0.55564582347869873 0 0.83141911029815674
vn -0.75231826305389404 0 0.65879982709884644
vn -0.83141911029815674 0 0.55564582347869873
vn -0.83141911029815674 0 0.55564582347869873
vn -0.99781054258346558 0 0.06613738089799881
vn -0.98079735040664673 0 0.19502958655357361
vn -0.98079735040664673 0 0.19502958655357361
vn -0.9978104829788208 0 -0.06613786518573761
vn -0.98079729080200195 0 -0.19503006339073181
vn -0.98079729080200195 0 -0.19503006339073181
vn -0.75231826305389404 0 -0.65879982709884644
vn -0.83141911029815674 0 -0.55564582347869873
vn -0.83141911029815674 0 -0.55564582347869873
vn -0.65879982709884644 0 -0.75231826305389404
vn -0.55564582347869873 0 -0.83141911029815674
vn -0.55564582347869873 0 -0.83141911029815674
vn -0.066138237714767456 0 -0.9978104829788208
vn -0.1950320303440094 0 -0.98079687356948853
vn -0.1950320303440094 0 -0.98079687356948853
vn 0.06613873690366745 0 -0.99781042337417603
vn 0.1950325220823288 0 -0.98079675436019897
vn 0.1950325220823288 0 -0.98079675436019897
vn 0.65879982709884644 0 -0.75231826305389404
vn 0.55564582347869873 0 -0.83141911029815674
vn 0.55564582347869873 0 -0.83141911029815674
vn 0.75231826305389404 0 -0.65879982709884644
vn 0.83141911029815674 0 -0.55564582347869873
vn 0.83141911029815674 0 -0.55564582347869873
vn 0.98079675436019897 0 -0.1950325220823288
vn 0.98079675436019897 0 -0.1950325220823288
f 66//66 67//67 68//68
f 66//66 68//68 69//69
f 66//66 69//69 70//70
f 66//66 70//70 71//71
f 66//66 71//71 72//72
f 66//66 72//72 73//73
f 66//66 73//73 74//74
f 66//66 74//74 75//75
f 66//66 75//75 76//76
f 66//66 76//76 77//77
f 66//66 77//77 78//78
f 66//66 78//78 79//79
f 66//66 79//79 80//80
f 66//66 80//80 81//81
f 66//66 81//81 82//82
f 66//66 82//82 67//67
f 83//83 84//84 85//85
f 83//83 85//85 86//86
f 87//87 88//88 89//89
f 87//87 89//89 90//90
f 91//91 87//87 90//90
f 91//91 90//90 92//92
f 93//93 94//94 95//95
f 93//93 95//95 96//96
f 97//97 93//93 96//96
f 97//97 96//96 98//98
f 99//99 100//100 101//101
f 99//99 101//101 102//102
f 103//103 99//99 102//102
f 103//103 102//102 104//104
f 105//105 106//106 107//107
f 105//105 107//107 108//108
f 109//109 105//105 108//108
f 109//109 108//108 110//110
f 111//111 112//112 113//113
f 111//111 113//113 114//114
f 115//115 111//111 114//114
f 115//115 114//114 116//116
f 117//117 118//118 119//119
f 117//117 119//119 120//120
f 121//121 117//117 120//120
f 121//121 120//120 122//122
f 123//123 124//124 125//125
f 123//123 125//125 126//126
f 127//127 123//123 126//126
f 127//127 126//126 128//128
f 84//84 129//129 130//130
f 84//84 130//130 85//85
usemtl diffuse_0
v -4.8000001907348633 -1.4399898052215583 3.3600102066993713
v -4.8000001907348633 -1.7599897980690009 3.3600102066993713
v -3.2000000476837158 -1.7599897980690009 3.3600102066993713
v -3.2000000476837158 -1.4399898052215583 3.3600102066993713
v -3.2000000476837158 -1.7599897980690007 2.5600102543830872
v -3.3599998950958252 -1.7599897980690007 2.7200101017951965
v -4.6399998664855957 -1.7599897980690007 2.7200101017951965
v -4.8000001907348633 -1.7599897980690007 2.5600102543830872
v -4.6399998664855957 -1.7599897980690009 3.2000101208686829
v -4.8000001907348633 -1.7599897980690009 3.3600102066993713
v -3.3599998950958252 -1.7599897980690009 3.2000101208686829
v -3.2000000476837158 -1.7599897980690009 3.3600102066993713
v -4.6399998664855957 -1.5999898016452794 2.7200101017951965
v -3.3599998950958252 -1.5999898016452794 2.7200101017951965
v -3.3599998950958252 -1.5999898016452796 3.2000101208686829
v -4.6399998664855957 -1.5999898016452796 3.2000101208686829
v -4.6399998664855957 -1.5999898016452794 2.7200101017951965
v -4.6399998664855957 -1.7599897980690007 2.7200101017951965
v -3.3599998950958252 -1.7599897980690007 2.7200101017951965
v -3.3599998950958252 -1.5999898016452794 2.7200101017951965
v -4.6399998664855957 -1.5999898016452796 3.2000101208686829
v -4.6399998664855957 -1.7599897980690009 3.2000101208686829
v -4.6399998664855957 -1.7599897980690007 2.7200101017951965
v -4.6399998664855957 -1.5999898016452794 2.7200101017951965
v -3.3599998950958252 -1.5999898016452796 3.2000101208686829
v -3.3599998950958252 -1.7599897980690009 3.2000101208686829
v -4.6399998664855957 -1.7599897980690009 3.2000101208686829
v -4.6399998664855957 -1.5999898016452796 3.2000101208686829
v -3.3599998950958252 -1.5999898016452794 2.7200101017951965
v -3.3599998950958252 -1.7599897980690007 2.7200101017951965
v -3.3599998950958252 -1.7599897980690009 3.2000101208686829
v -3.3599998950958252 -1.5999898016452796 3.2000101208686829
v -3.2000000476837158 -1.7599897980690009 3.3600102066993713
v -3.2000000476837158 -1.7599897980690007 2.5600102543830872
v -3.2000000476837158 -1.4399898052215581 2.5600102543830872
v -3.2000000476837158 -1.4399898052215583 3.3600102066993713
v -4.8000001907348633 -1.7599897980690007 2.5600102543830872
v -4.8000001907348633 -1.7599897980690009 3.3600102066993713
v -4.8000001907348633 -1.4399898052215583 3.3600102066993713
v -4.8000001907348633 -1.4399898052215581 2.5600102543830872
v -3.2000000476837158 -1.7599897980690007 2.5600102543830872
v -4.8000001907348633 -1.7599897980690007 2.5600102543830872
v -4.8000001907348633 -1.4399898052215581 2.5600102543830872
v -3.2000000476837158 -1.4399898052215581 2.5600102543830872
v -4.8000001907348633 -1.4399898052215581 2.5600102543830872
v -4.8000001907348633 -1.4399898052215583 3.3600102066993713
v -3.2000000476837158 -1.4399898052215583 3.3600102066993713
v -3.2000000476837158 -1.4399898052215581 2.5600102543830872
vn 0 0 1
vn 0 0 1
vn 0 0 1
vn 0 0 1
vn 0 -1 0
vn 0 -1 0
vn 0 -1 0
vn 0 -1 0
vn 0 -1 0
vn 0 -1 0
vn 0 -1 0
vn 0 -1 0
vn 0 -1 0
vn 0 -1 0
vn 0 -1 0
vn 0 -1 0
vn 0 0 1
vn 0 0 1
vn 0 0 1
vn 0 0 1
vn 1 0 0
vn 1 0 0
vn 1 0 0
vn 1 0 0
vn 0 0 -1
vn 0 0 -1
vn 0 0 -1
vn 0 0 -1
vn -1 0 0
vn -1 0 0
vn -1 0 0
vn -1 0 0
vn 1 0 0
vn 1 0 0
vn 1 0 0
vn 1 0 0
vn -1 0 0
vn -1 0 0
vn -1 0 0
vn -1 0 0
vn 0 0 -1
vn 0 0 -1
vn 0 0 -1
vn 0 0 -1
vn 0 1 0
vn 0 1 0
vn 0 1 0
vn 0 1 0
f 131//131 132//132 133//133
f 131//131 133//133 134//134
f 135//135 136//136 137//137
f 135//135 137//137 138//138
f 138//138 137//137 139//139
f 138//138 139//139 140//140
f 140//140 139//139 141//141
f 140//140 141//141 142//142
f 142//142 141//141 136//136
f 142//142 136//136 135//135
f 143//143 144//144 145//145
f 143//143 145//145 146//146
f 147//147 148//148 149//149
f 147//147 149//149 150//150
f 151//151 152//152 153//153
f 151//151 153//153 154//154
f 155//155 156//156 157//157
f 155//155 157//157 158//158
f 159//159 160//160 161//161
f 159//159 161//161 162//162
f 163//163 164//164 165//165
f 163//163 165//165 166//166
f 167//167 168//168 169//169
f 167//167 169//169 170//170
f 171//171 172//172 173//173
f 171//171 173//173 174//174
f 175//175 176//176 177//177
f 175//175 177//177 178//178
