# Rhino

mtllib part 10.mtl
usemtl diffuse_0
v -0.40000000596046448 -0.63998979330062755 -2.6399897933006287
v -0.40000000596046448 -0.63998979330062777 -2.3999897837638855
v -0.30815199017524719 -0.63998979330062777 -2.4182538390159607
v -0.23029600083827972 -0.63998979330062777 -2.4702858328819275
v -0.17826400697231293 -0.63998979330062777 -2.5481417775154114
v -0.15999999642372131 -0.63998979330062755 -2.6399897933006287
v -0.17826400697231293 -0.63998979330062755 -2.7318376898765564
v -0.23029600083827972 -0.63998979330062755 -2.8096937537193298
v -0.30815199017524719 -0.63998979330062755 -2.8617257475852966
v -0.40000000596046448 -0.63998979330062755 -2.8799898028373718
v -0.49184799194335938 -0.63998979330062755 -2.8617257475852966
v -0.56970399618148804 -0.63998979330062755 -2.8096937537193298
v -0.62173599004745483 -0.63998979330062755 -2.7318376898765564
v -0.63999998569488525 -0.63998979330062755 -2.6399897933006287
v -0.62173599004745483 -0.63998979330062777 -2.5481417775154114
v -0.56970399618148804 -0.63998979330062777 -2.4702858328819275
v -0.49184799194335938 -0.63998979330062777 -2.4182538390159607
v -0.49184799194335938 -0.79998981952667148 -2.4182538390159607
v -0.40000000596046448 -0.79998981952667148 -2.3999897837638855
v -0.40000000596046448 -0.63998979330062777 -2.3999897837638855
v -0.49184799194335938 -0.63998979330062777 -2.4182538390159607
v -0.56970399618148804 -0.79998981952667136 -2.4702858328819275
v -0.49184799194335938 -0.79998981952667148 -2.4182538390159607
v -0.49184799194335938 -0.63998979330062777 -2.4182538390159607
v -0.56970399618148804 -0.63998979330062777 -2.4702858328819275
v -0.62173599004745483 -0.79998981952667136 -2.5481417775154114
v -0.62173599004745483 -0.63998979330062777 -2.5481417775154114
v -0.63999998569488525 -0.79998981952667136 -2.6399897933006287
v -0.62173599004745483 -0.79998981952667136 -2.5481417775154114
v -0.62173599004745483 -0.63998979330062777 -2.5481417775154114
v -0.63999998569488525 -0.63998979330062755 -2.6399897933006287
v -0.62173599004745483 -0.79998981952667136 -2.7318376898765564
v -0.62173599004745483 -0.63998979330062755 -2.7318376898765564
v -0.56970399618148804 -0.79998981952667136 -2.8096937537193298
v -0.62173599004745483 -0.79998981952667136 -2.7318376898765564
v -0.62173599004745483 -0.63998979330062755 -2.7318376898765564
v -0.56970399618148804 -0.63998979330062755 -2.8096937537193298
v -0.49184799194335938 -0.79998981952667125 -2.8617257475852966
v -0.49184799194335938 -0.63998979330062755 -2.8617257475852966
v -0.40000000596046448 -0.79998981952667125 -2.8799898028373718
v -0.49184799194335938 -0.79998981952667125 -2.8617257475852966
v -0.49184799194335938 -0.63998979330062755 -2.8617257475852966
v -0.40000000596046448 -0.63998979330062755 -2.8799898028373718
v -0.30815199017524719 -0.79998981952667125 -2.8617257475852966
v -0.30815199017524719 -0.63998979330062755 -2.8617257475852966
v -0.23029600083827972 -0.79998981952667136 -2.8096937537193298
v -0.30815199017524719 -0.79998981952667125 -2.8617257475852966
v -0.30815199017524719 -0.63998979330062755 -2.8617257475852966
v -0.23029600083827972 -0.63998979330062755 -2.8096937537193298
v -0.17826400697231293 -0.79998981952667136 -2.7318376898765564
v -0.17826400697231293 -0.63998979330062755 -2.7318376898765564
v -0.15999999642372131 -0.79998981952667136 -2.6399897933006287
v -0.17826400697231293 -0.79998981952667136 -2.7318376898765564
v -0.17826400697231293 -0.63998979330062755 -2.7318376898765564
v -0.15999999642372131 -0.63998979330062755 -2.6399897933006287
v -0.17826400697231293 -0.79998981952667136 -2.5481417775154114
v -0.17826400697231293 -0.63998979330062777 -2.5481417775154114
v -0.23029600083827972 -0.79998981952667136 -2.4702858328819275
v -0.17826400697231293 -0.79998981952667136 -2.5481417775154114
v -0.17826400697231293 -0.63998979330062777 -2.5481417775154114
v -0.23029600083827972 -0.63998979330062777 -2.4702858328819275
v -0.30815199017524719 -0.79998981952667148 -2.4182538390159607
v -0.30815199017524719 -0.63998979330062777 -2.4182538390159607
v -0.30815199017524719 -0.79998981952667148 -2.4182538390159607
v -0.30815199017524719 -0.63998979330062777 -2.4182538390159607
vn 0 1 0
vn 0 1 0
vn 0 1 0
vn 0 1 0
vn 0 1 0
vn 0 1 0
vn 0 1 0
vn 0 1 0
vn 0 1 0
vn 0 1 0
vn 0 1 0
vn 0 1 0
vn 0 1 0
vn 0 1 0
vn 0 1 0
vn 0 1 0
vn 0 1 0
vn -0.19503232836723328 0 0.98079681396484375
vn 0.066138461232185364 0 0.9978104829788208
vn -0.066138520836830139 0 0.99781042337417603
vn -0.19503232836723328 0 0.98079681396484375
vn -0.65879982709884644 0 0.75231832265853882
vn -0.55564606189727783 0 0.83141893148422241
vn -0.55564606189727783 0 0.83141893148422241
vn -0.75231808423995972 0 0.65880006551742554
vn -0.83141875267028809 0 0.55564635992050171
vn -0.83141875267028809 0 0.55564635992050171
vn -0.9978104829788208 0 0.066138178110122681
vn -0.9807969331741333 0 0.19503165781497955
vn -0.9807969331741333 0 0.19503165781497955
vn -0.9978104829788208 0 -0.066138438880443573
vn -0.98079687356948853 0 -0.19503191113471985
vn -0.98079687356948853 0 -0.19503191113471985
vn -0.75231838226318359 0 -0.65879970788955688
vn -0.83141911029815674 0 -0.55564582347869873
vn -0.83141911029815674 0 -0.55564582347869873
vn -0.65879994630813599 0 -0.75231814384460449
vn -0.55564606189727783 0 -0.83141893148422241
vn -0.55564606189727783 0 -0.83141893148422241
vn -0.066138520836830139 0 -0.99781042337417603
vn -0.19503232836723328 0 -0.98079681396484375
vn -0.19503232836723328 0 -0.98079681396484375
vn 0.066138461232185364 0 -0.9978104829788208
vn 0.1950322687625885 0 -0.98079681396484375
vn 0.1950322687625885 0 -0.98079681396484375
vn 0.65880006551742554 0 -0.75231808423995972
vn 0.55564618110656738 0 -0.83141887187957764
vn 0.55564618110656738 0 -0.83141887187957764
vn 0.75231838226318359 0 -0.65879970788955688
vn 0.83141911029815674 0 -0.55564582347869873
vn 0.83141911029815674 0 -0.55564582347869873
vn 0.9978104829788208 0 -0.066138483583927155
vn 0.98079687356948853 0 -0.19503206014633179
vn 0.98079687356948853 0 -0.19503206014633179
vn 0.9978104829788208 0 0.066138245165348053
vn 0.9807969331741333 0 0.19503182172775269
vn 0.9807969331741333 0 0.19503182172775269
vn 0.75231808423995972 0 0.65880000591278076
vn 0.83141875267028809 0 0.55564635992050171
vn 0.83141875267028809 0 0.55564635992050171
vn 0.65879982709884644 0 0.75231826305389404
vn 0.55564618110656738 0 0.83141887187957764
vn 0.55564618110656738 0 0.83141887187957764
vn 0.1950322687625885 0 0.98079681396484375
vn 0.1950322687625885 0 0.98079681396484375
f 1//1 2//2 3//3
f 1//1 3//3 4//4
f 1//1 4//4 5//5
f 1//1 5//5 6//6
f 1//1 6//6 7//7
f 1//1 7//7 8//8
f 1//1 8//8 9//9
f 1//1 9//9 10//10
f 1//1 10//10 11//11
f 1//1 11//11 12//12
f 1//1 12//12 13//13
f 1//1 13//13 14//14
f 1//1 14//14 15//15
f 1//1 15//15 16//16
f 1//1 16//16 17//17
f 1//1 17//17 2//2
f 18//18 19//19 20//20
f 18//18 20//20 21//21
f 22//22 23//23 24//24
f 22//22 24//24 25//25
f 26//26 22//22 25//25
f 26//26 25//25 27//27
f 28//28 29//29 30//30
f 28//28 30//30 31//31
f 32//32 28//28 31//31
f 32//32 31//31 33//33
f 34//34 35//35 36//36
f 34//34 36//36 37//37
f 38//38 34//34 37//37
f 38//38 37//37 39//39
f 40//40 41//41 42//42
f 40//40 42//42 43//43
f 44//44 40//40 43//43
f 44//44 43//43 45//45
f 46//46 47//47 48//48
f 46//46 48//48 49//49
f 50//50 46//46 49//49
f 50//50 49//49 51//51
f 52//52 53//53 54//54
f 52//52 54//54 55//55
f 56//56 52//52 55//55
f 56//56 55//55 57//57
f 58//58 59//59 60//60
f 58//58 60//60 61//61
f 62//62 58//58 61//61
f 62//62 61//61 63//63
f 19//19 64//64 65//65
f 19//19 65//65 20//20
usemtl diffuse_0
v -0.80000001192092896 -1.7599897980689994 -2.2399898171424866
v 0 -1.7599897980689994 -2.2399898171424866
v 0 -0.79998981952667148 -2.2399898171424866
v -0.80000001192092896 -0.79998981952667148 -2.2399898171424866
v 0 -1.7599897980689994 -2.2399898171424866
v -0.15999999642372131 -1.7599897980689994 -2.3999897837638855
v -0.15999999642372131 -1.7599897980689991 -2.8799898028373718
v 0 -1.7599897980689991 -3.0399898886680603
v -0.63999998569488525 -1.7599897980689991 -2.8799898028373718
v -0.80000001192092896 -1.7599897980689991 -3.0399898886680603
v -0.63999998569488525 -1.7599897980689994 -2.3999897837638855
v -0.80000001192092896 -1.7599897980689994 -2.2399898171424866
v -0.15999999642372131 -0.95998978614807018 -2.8799898028373718
v -0.15999999642372131 -0.9599897861480704 -2.3999897837638855
v -0.63999998569488525 -0.9599897861480704 -2.3999897837638855
v -0.63999998569488525 -0.95998978614807018 -2.8799898028373718
v -0.15999999642372131 -0.95998978614807018 -2.8799898028373718
v -0.15999999642372131 -1.7599897980689991 -2.8799898028373718
v -0.15999999642372131 -1.7599897980689994 -2.3999897837638855
v -0.15999999642372131 -0.9599897861480704 -2.3999897837638855
v -0.63999998569488525 -0.95998978614807018 -2.8799898028373718
v -0.63999998569488525 -1.7599897980689991 -2.8799898028373718
v -0.15999999642372131 -1.7599897980689991 -2.8799898028373718
v -0.15999999642372131 -0.95998978614807018 -2.8799898028373718
v -0.63999998569488525 -0.9599897861480704 -2.3999897837638855
v -0.63999998569488525 -1.7599897980689994 -2.3999897837638855
v -0.63999998569488525 -1.7599897980689991 -2.8799898028373718
v -0.63999998569488525 -0.95998978614807018 -2.8799898028373718
v -0.15999999642372131 -0.9599897861480704 -2.3999897837638855
v -0.15999999642372131 -1.7599897980689994 -2.3999897837638855
v -0.63999998569488525 -1.7599897980689994 -2.3999897837638855
v -0.63999998569488525 -0.9599897861480704 -2.3999897837638855
v 0 -1.7599897980689994 -2.2399898171424866
v 0 -1.7599897980689991 -3.0399898886680603
v 0 -0.79998981952667125 -3.0399898886680603
v 0 -0.79998981952667148 -2.2399898171424866
v -0.80000001192092896 -1.7599897980689991 -3.0399898886680603
v -0.80000001192092896 -1.7599897980689994 -2.2399898171424866
v -0.80000001192092896 -0.79998981952667148 -2.2399898171424866
v -0.80000001192092896 -0.79998981952667125 -3.0399898886680603
v 0 -1.7599897980689991 -3.0399898886680603
v -0.80000001192092896 -1.7599897980689991 -3.0399898886680603
v -0.80000001192092896 -0.79998981952667125 -3.0399898886680603
v 0 -0.79998981952667125 -3.0399898886680603
v -0.80000001192092896 -0.79998981952667125 -3.0399898886680603
v -0.80000001192092896 -0.79998981952667148 -2.2399898171424866
v 0 -0.79998981952667148 -2.2399898171424866
v 0 -0.79998981952667125 -3.0399898886680603
vn 0 0 1
vn 0 0 1
vn 0 0 1
vn 0 0 1
vn 0 -1 0
vn 0 -1 0
vn 0 -1 0
vn 0 -1 0
vn 0 -1 0
vn 0 -1 0
vn 0 -1 0
vn 0 -1 0
vn 0 -1 0
vn 0 -1 0
vn 0 -1 0
vn 0 -1 0
vn -1 0 0
vn -1 0 0
vn -1 0 0
vn -1 0 0
vn 0 0 1
vn 0 0 1
vn 0 0 1
vn 0 0 1
vn 1 0 0
vn 1 0 0
vn 1 0 0
vn 1 0 0
vn 0 0 -1
vn 0 0 -1
vn 0 0 -1
vn 0 0 -1
vn 1 0 0
vn 1 0 0
vn 1 0 0
vn 1 0 0
vn -1 0 0
vn -1 0 0
vn -1 0 0
vn -1 0 0
vn 0 0 -1
vn 0 0 -1
vn 0 0 -1
vn 0 0 -1
vn 0 1 0
vn 0 1 0
vn 0 1 0
vn 0 1 0
f 66//66 67//67 68//68
f 66//66 68//68 69//69
f 70//70 71//71 72//72
f 70//70 72//72 73//73
f 73//73 72//72 74//74
f 73//73 74//74 75//75
f 75//75 74//74 76//76
f 75//75 76//76 77//77
f 77//77 76//76 71//71
f 77//77 71//71 70//70
f 78//78 79//79 80//80
f 78//78 80//80 81//81
f 82//82 83//83 84//84
f 82//82 84//84 85//85
f 86//86 87//87 88//88
f 86//86 88//88 89//89
f 90//90 91//91 92//92
f 90//90 92//92 93//93
f 94//94 95//95 96//96
f 94//94 96//96 97//97
f 98//98 99//99 100//100
f 98//98 100//100 101//101
f 102//102 103//103 104//104
f 102//102 104//104 105//105
f 106//106 107//107 108//108
f 106//106 108//108 109//109
f 110//110 111//111 112//112
f 110//110 112//112 113//113
