# Rhino

mtllib part 6.mtl
usemtl diffuse_0
v 3.2000000476837158 -1.7599897980690002 0.96001023054122903
v 3.0399999618530273 -1.7599897980690002 1.120010197162628
v 2.559999942779541 -1.7599897980690002 1.120010197162628
v 2.4000000953674316 -1.7599897980690002 0.96001023054122903
v 2.559999942779541 -1.7599897980690005 1.6000102162361143
v 2.4000000953674316 -1.7599897980690005 1.7600103020668028
v 3.0399999618530273 -1.7599897980690005 1.6000102162361143
v 3.2000000476837158 -1.7599897980690005 1.7600103020668028
v 2.4000000953674316 -1.4399898052215578 1.7600103020668028
v 3.2000000476837158 -1.4399898052215578 1.7600103020668028
v 3.2000000476837158 -1.4399898052215576 0.96001023054122903
v 2.4000000953674316 -1.4399898052215576 0.96001023054122903
v 3.2000000476837158 -1.4399898052215578 1.7600103020668028
v 3.2000000476837158 -1.7599897980690005 1.7600103020668028
v 3.2000000476837158 -1.7599897980690002 0.96001023054122903
v 3.2000000476837158 -1.4399898052215576 0.96001023054122903
v 2.4000000953674316 -1.4399898052215578 1.7600103020668028
v 2.4000000953674316 -1.7599897980690005 1.7600103020668028
v 3.2000000476837158 -1.7599897980690005 1.7600103020668028
v 3.2000000476837158 -1.4399898052215578 1.7600103020668028
v 2.4000000953674316 -1.4399898052215576 0.96001023054122903
v 2.4000000953674316 -1.7599897980690002 0.96001023054122903
v 2.4000000953674316 -1.7599897980690005 1.7600103020668028
v 2.4000000953674316 -1.4399898052215578 1.7600103020668028
v 3.2000000476837158 -1.4399898052215576 0.96001023054122903
v 3.2000000476837158 -1.7599897980690002 0.96001023054122903
v 2.4000000953674316 -1.7599897980690002 0.96001023054122903
v 2.4000000953674316 -1.4399898052215576 0.96001023054122903
v 2.559999942779541 -1.5999898016452789 1.120010197162628
v 3.0399999618530273 -1.5999898016452789 1.120010197162628
v 3.0399999618530273 -1.5999898016452792 1.6000102162361143
v 2.559999942779541 -1.5999898016452792 1.6000102162361143
v 2.559999942779541 -1.5999898016452789 1.120010197162628
v 2.559999942779541 -1.7599897980690002 1.120010197162628
v 3.0399999618530273 -1.7599897980690002 1.120010197162628
v 3.0399999618530273 -1.5999898016452789 1.120010197162628
v 2.559999942779541 -1.5999898016452792 1.6000102162361143
v 2.559999942779541 -1.7599897980690005 1.6000102162361143
v 2.559999942779541 -1.7599897980690002 1.120010197162628
v 2.559999942779541 -1.5999898016452789 1.120010197162628
v 3.0399999618530273 -1.5999898016452792 1.6000102162361143
v 3.0399999618530273 -1.7599897980690005 1.6000102162361143
v 2.559999942779541 -1.7599897980690005 1.6000102162361143
v 2.559999942779541 -1.5999898016452792 1.6000102162361143
v 3.0399999618530273 -1.5999898016452789 1.120010197162628
v 3.0399999618530273 -1.7599897980690002 1.120010197162628
v 3.0399999618530273 -1.7599897980690005 1.6000102162361143
v 3.0399999618530273 -1.5999898016452792 1.6000102162361143
vn 0 -1 0
vn 0 -1 0
vn 0 -1 0
vn 0 -1 0
vn 0 -1 0
vn 0 -1 0
vn 0 -1 0
vn 0 -1 0
vn 0 1 0
vn 0 1 0
vn 0 1 0
vn 0 1 0
vn 1 0 0
vn 1 0 0
vn 1 0 0
vn 1 0 0
vn 0 0 1
vn 0 0 1
vn 0 0 1
vn 0 0 1
vn -1 0 0
vn -1 0 0
vn -1 0 0
vn -1 0 0
vn 0 0 -1
vn 0 0 -1
vn 0 0 -1
vn 0 0 -1
vn 0 -1 0
vn 0 -1 0
vn 0 -1 0
vn 0 -1 0
vn 0 0 1
vn 0 0 1
vn 0 0 1
vn 0 0 1
vn 1 0 0
vn 1 0 0
vn 1 0 0
vn 1 0 0
vn 0 0 -1
vn 0 0 -1
vn 0 0 -1
vn 0 0 -1
vn -1 0 0
vn -1 0 0
vn -1 0 0
vn -1 0 0
f 1//1 2//2 3//3
f 1//1 3//3 4//4
f 4//4 3//3 5//5
f 4//4 5//5 6//6
f 6//6 5//5 7//7
f 6//6 7//7 8//8
f 8//8 7//7 2//2
f 8//8 2//2 1//1
f 9//9 10//10 11//11
f 9//9 11//11 12//12
f 13//13 14//14 15//15
f 13//13 15//15 16//16
f 17//17 18//18 19//19
f 17//17 19//19 20//20
f 21//21 22//22 23//23
f 21//21 23//23 24//24
f 25//25 26//26 27//27
f 25//25 27//27 28//28
f 29//29 30//30 31//31
f 29//29 31//31 32//32
f 33//33 34//34 35//35
f 33//33 35//35 36//36
f 37//37 38//38 39//39
f 37//37 39//39 40//40
f 41//41 42//42 43//43
f 41//41 43//43 44//44
f 45//45 46//46 47//47
f 45//45 47//47 48//48
