# Rhino

mtllib part 14.mtl
usemtl diffuse_0
v -4.8000001907348633 -1.439989805221557 -1.4399898052215576
v -4.8000001907348633 -1.4399898052215572 -0.63998979330062877
v -4 -1.4399898052215572 -0.63998979330062877
v -4 -1.439989805221557 -1.4399898052215576
v -4.0399999618530273 -1.7599897980689996 -1.3999897837638857
v -4.1599998474121094 -1.7599897980689996 -1.2799897789955141
v -4.6399998664855957 -1.7599897980689996 -1.2799897789955141
v -4.7600002288818359 -1.7599897980689996 -1.3999897837638857
v -4.6399998664855957 -1.7599897980689998 -0.7999897897243502
v -4.7600002288818359 -1.7599897980689998 -0.67998979240655921
v -4.1599998474121094 -1.7599897980689998 -0.7999897897243502
v -4.0399999618530273 -1.7599897980689998 -0.67998979240655921
v -4 -1.7199897989630692 -1.4399898052215578
v -4.0399999618530273 -1.7199897989630692 -1.3999897837638857
v -4.7600002288818359 -1.7199897989630692 -1.3999897837638857
v -4.8000001907348633 -1.7199897989630692 -1.4399898052215578
v -4.7600002288818359 -1.7199897989630695 -0.67998979240655921
v -4.8000001907348633 -1.7199897989630695 -0.63998979330062888
v -4.0399999618530273 -1.7199897989630695 -0.67998979240655921
v -4 -1.7199897989630695 -0.63998979330062888
v -4.8000001907348633 -1.7199897989630692 -1.4399898052215578
v -4.8000001907348633 -1.439989805221557 -1.4399898052215576
v -4 -1.439989805221557 -1.4399898052215576
v -4 -1.7199897989630692 -1.4399898052215578
v -4.8000001907348633 -1.7199897989630695 -0.63998979330062888
v -4.8000001907348633 -1.4399898052215572 -0.63998979330062877
v -4.8000001907348633 -1.439989805221557 -1.4399898052215576
v -4.8000001907348633 -1.7199897989630692 -1.4399898052215578
v -4 -1.7199897989630695 -0.63998979330062888
v -4 -1.4399898052215572 -0.63998979330062877
v -4.8000001907348633 -1.4399898052215572 -0.63998979330062877
v -4.8000001907348633 -1.7199897989630695 -0.63998979330062888
v -4 -1.7199897989630692 -1.4399898052215578
v -4 -1.439989805221557 -1.4399898052215576
v -4 -1.4399898052215572 -0.63998979330062877
v -4 -1.7199897989630695 -0.63998979330062888
v -4.6399998664855957 -1.5999898016452783 -1.2799897789955141
v -4.1599998474121094 -1.5999898016452783 -1.2799897789955141
v -4.1599998474121094 -1.5999898016452785 -0.7999897897243502
v -4.6399998664855957 -1.5999898016452785 -0.7999897897243502
v -4.6399998664855957 -1.5999898016452783 -1.2799897789955141
v -4.6399998664855957 -1.7599897980689996 -1.2799897789955141
v -4.1599998474121094 -1.7599897980689996 -1.2799897789955141
v -4.1599998474121094 -1.5999898016452783 -1.2799897789955141
v -4.6399998664855957 -1.5999898016452785 -0.7999897897243502
v -4.6399998664855957 -1.7599897980689998 -0.7999897897243502
v -4.6399998664855957 -1.7599897980689996 -1.2799897789955141
v -4.6399998664855957 -1.5999898016452783 -1.2799897789955141
v -4.1599998474121094 -1.5999898016452785 -0.7999897897243502
v -4.1599998474121094 -1.7599897980689998 -0.7999897897243502
v -4.6399998664855957 -1.7599897980689998 -0.7999897897243502
v -4.6399998664855957 -1.5999898016452785 -0.7999897897243502
v -4.1599998474121094 -1.5999898016452783 -1.2799897789955141
v -4.1599998474121094 -1.7599897980689996 -1.2799897789955141
v -4.1599998474121094 -1.7599897980689998 -0.7999897897243502
v -4.1599998474121094 -1.5999898016452785 -0.7999897897243502
v -4.7600002288818359 -1.7599897980689996 -1.3999897837638857
v -4.7600002288818359 -1.7199897989630692 -1.3999897837638857
v -4.0399999618530273 -1.7199897989630692 -1.3999897837638857
v -4.0399999618530273 -1.7599897980689996 -1.3999897837638857
v -4.7600002288818359 -1.7599897980689998 -0.67998979240655921
v -4.7600002288818359 -1.7199897989630695 -0.67998979240655921
v -4.7600002288818359 -1.7199897989630692 -1.3999897837638857
v -4.7600002288818359 -1.7599897980689996 -1.3999897837638857
v -4.0399999618530273 -1.7599897980689998 -0.67998979240655921
v -4.0399999618530273 -1.7199897989630695 -0.67998979240655921
v -4.7600002288818359 -1.7199897989630695 -0.67998979240655921
v -4.7600002288818359 -1.7599897980689998 -0.67998979240655921
v -4.0399999618530273 -1.7599897980689996 -1.3999897837638857
v -4.0399999618530273 -1.7199897989630692 -1.3999897837638857
v -4.0399999618530273 -1.7199897989630695 -0.67998979240655921
v -4.0399999618530273 -1.7599897980689998 -0.67998979240655921
vn 0 1 0
vn 0 1 0
vn 0 1 0
vn 0 1 0
vn 0 -1 0
vn 0 -1 0
vn 0 -1 0
vn 0 -1 0
vn 0 -1 0
vn 0 -1 0
vn 0 -1 0
vn 0 -1 0
vn 0 -1 0
vn 0 -1 0
vn 0 -1 0
vn 0 -1 0
vn 0 -1 0
vn 0 -1 0
vn 0 -1 0
vn 0 -1 0
vn 0 0 -1
vn 0 0 -1
vn 0 0 -1
vn 0 0 -1
vn -1 0 0
vn -1 0 0
vn -1 0 0
vn -1 0 0
vn 0 0 1
vn 0 0 1
vn 0 0 1
vn 0 0 1
vn 1 0 0
vn 1 0 0
vn 1 0 0
vn 1 0 0
vn 0 -1 0
vn 0 -1 0
vn 0 -1 0
vn 0 -1 0
vn 0 0 1
vn 0 0 1
vn 0 0 1
vn 0 0 1
vn 1 0 0
vn 1 0 0
vn 1 0 0
vn 1 0 0
vn 0 0 -1
vn 0 0 -1
vn 0 0 -1
vn 0 0 -1
vn -1 0 0
vn -1 0 0
vn -1 0 0
vn -1 0 0
vn 0 0 -1
vn 0 0 -1
vn 0 0 -1
vn 0 0 -1
vn -1 0 0
vn -1 0 0
vn -1 0 0
vn -1 0 0
vn 0 0 1
vn 0 0 1
vn 0 0 1
vn 0 0 1
vn 1 0 0
vn 1 0 0
vn 1 0 0
vn 1 0 0
f 1//1 2//2 3//3
f 1//1 3//3 4//4
f 5//5 6//6 7//7
f 5//5 7//7 8//8
f 8//8 7//7 9//9
f 8//8 9//9 10//10
f 10//10 9//9 11//11
f 10//10 11//11 12//12
f 12//12 11//11 6//6
f 12//12 6//6 5//5
f 13//13 14//14 15//15
f 13//13 15//15 16//16
f 16//16 15//15 17//17
f 16//16 17//17 18//18
f 18//18 17//17 19//19
f 18//18 19//19 20//20
f 20//20 19//19 14//14
f 20//20 14//14 13//13
f 21//21 22//22 23//23
f 21//21 23//23 24//24
f 25//25 26//26 27//27
f 25//25 27//27 28//28
f 29//29 30//30 31//31
f 29//29 31//31 32//32
f 33//33 34//34 35//35
f 33//33 35//35 36//36
f 37//37 38//38 39//39
f 37//37 39//39 40//40
f 41//41 42//42 43//43
f 41//41 43//43 44//44
f 45//45 46//46 47//47
f 45//45 47//47 48//48
f 49//49 50//50 51//51
f 49//49 51//51 52//52
f 53//53 54//54 55//55
f 53//53 55//55 56//56
f 57//57 58//58 59//59
f 57//57 59//59 60//60
f 61//61 62//62 63//63
f 61//61 63//63 64//64
f 65//65 66//66 67//67
f 65//65 67//67 68//68
f 69//69 70//70 71//71
f 69//69 71//71 72//72
